<svg width="20" height="18" viewBox="0 0 20 18" fill="none" xmlns="http://www.w3.org/2000/svg">
<path d="M1 0.00789348C0.734784 0.00789348 0.48043 0.11325 0.292893 0.300787C0.105357 0.488323 0 0.742677 0 1.00789V5.00789V6.50789C0 8.19789 1.03 9.63789 2.5 10.2279V16.5079C2.5 16.9057 2.65804 17.2872 2.93934 17.5686C3.22064 17.8499 3.60218 18.0079 4 18.0079C4.39782 18.0079 4.77936 17.8499 5.06066 17.5686C5.34196 17.2872 5.5 16.9057 5.5 16.5079V10.2279C6.97 9.63789 8 8.19789 8 6.50789V5.00789V1.00789C8 0.742677 7.89464 0.488323 7.70711 0.300787C7.51957 0.11325 7.26522 0.00789348 7 0.00789348C6.73478 0.00789348 6.48043 0.11325 6.29289 0.300787C6.10536 0.488323 6 0.742677 6 1.00789V5.00789C6 5.1405 5.94732 5.26768 5.85355 5.36145C5.75979 5.45522 5.63261 5.50789 5.5 5.50789C5.36739 5.50789 5.24021 5.45522 5.14645 5.36145C5.05268 5.26768 5 5.1405 5 5.00789V1.00789C5 0.742677 4.89464 0.488323 4.70711 0.300787C4.51957 0.11325 4.26522 0.00789348 4 0.00789348C3.73478 0.00789348 3.48043 0.11325 3.29289 0.300787C3.10536 0.488323 3 0.742677 3 1.00789V5.00789C3 5.1405 2.94732 5.26768 2.85355 5.36145C2.75979 5.45522 2.63261 5.50789 2.5 5.50789C2.36739 5.50789 2.24021 5.45522 2.14645 5.36145C2.05268 5.26768 2 5.1405 2 5.00789V1.00789C2 0.742677 1.89464 0.488323 1.70711 0.300787C1.51957 0.11325 1.26522 0.00789348 1 0.00789348ZM17.88 0.00789348C17.75 0.00789348 17.62 0.0978936 17.5 0.167894L14 2.25789V6.00789H10V8.00789H11L12 18.0079H18L19 8.00789H20V6.00789H16V3.34789L18.5 1.84789C19 1.56789 19.13 1.00789 18.84 0.507894C18.63 0.147893 18.26 -0.0421065 17.88 0.00789348Z" fill="#212121" fill-opacity="0.14"/>
</svg>
