<svg width="18" height="20" viewBox="0 0 18 20" fill="none" xmlns="http://www.w3.org/2000/svg">
<path d="M9.0001 9.52039C8.2801 9.52039 7.8001 10.0004 7.8001 10.7204C7.8001 11.2004 8.1601 11.5604 8.5201 11.6804L8.1601 13.3604H9.7201L9.3601 11.6804C9.8401 11.5604 10.0801 11.2004 10.0801 10.7204C10.2001 10.0004 9.7201 9.52039 9.0001 9.52039ZM9.1201 4.36039C8.2801 4.36039 7.4401 4.96039 7.4401 5.80039V7.60039H10.6801V5.80039C10.5601 4.96039 9.9601 4.36039 9.1201 4.36039ZM9.0001 0.400391L0.600098 4.00039V7.60039C0.720098 12.8804 4.0801 17.5604 9.0001 19.4804C13.9201 17.5604 17.2801 12.8804 17.4001 7.60039V4.00039L9.0001 0.400391ZM13.8001 13.6004C13.8001 14.3204 13.3201 14.8004 12.6001 14.8004H5.4001C4.6801 14.8004 4.2001 14.3204 4.2001 13.6004V8.80039C4.2001 8.08039 4.6801 7.60039 5.4001 7.60039H5.7601V5.80039C5.8801 4.12039 7.3201 2.80039 9.0001 2.80039C10.6801 2.80039 12.1201 4.12039 12.2401 5.80039V7.60039H12.6001C13.3201 7.60039 13.8001 8.08039 13.8001 8.80039V13.6004Z" fill="#EB5757"/>
</svg>
